<svg width="106" height="60" viewBox="0 0 106 60" fill="none" xmlns="http://www.w3.org/2000/svg">
<path d="M24.1462 21.1028H24.1433C21.7453 21.1028 19.8013 22.8304 19.8013 24.9615V24.964C19.8013 27.0951 21.7453 28.8227 24.1433 28.8227H24.1462C26.5442 28.8227 28.4882 27.0951 28.4882 24.964V24.9615C28.4882 22.8304 26.5442 21.1028 24.1462 21.1028Z" fill="#2196F3"/>
<path d="M56.195 19.8693C56.1882 16.9093 54.8623 14.0722 52.5074 11.979C50.1525 9.88568 46.9604 8.70667 43.6297 8.69995V8.69995C40.298 8.70533 37.1045 9.88374 34.7484 11.9772C32.3922 14.0706 31.0655 16.9084 31.0587 19.8693V36.1921C31.0587 36.1921 56.1922 33.7044 56.195 19.8718V19.8693Z" fill="#2196F3"/>
<path d="M11 41.5495C11.006 43.6091 11.9291 45.5828 13.5676 47.0394C15.2061 48.496 17.4267 49.317 19.7442 49.3231C22.0612 49.317 24.2814 48.4963 25.9197 47.0403C27.5581 45.5843 28.4816 43.6112 28.4884 41.552V30.1943C28.4884 30.1943 11 31.9266 11 41.5495ZM19.7442 43.5844C19.2913 43.5844 18.8486 43.4651 18.472 43.2415C18.0955 43.0179 17.802 42.7001 17.6287 42.3282C17.4554 41.9564 17.41 41.5472 17.4984 41.1525C17.5867 40.7577 17.8048 40.3951 18.125 40.1105C18.4453 39.8259 18.8533 39.6321 19.2975 39.5536C19.7416 39.4751 20.202 39.5154 20.6205 39.6694C21.0389 39.8234 21.3965 40.0843 21.6481 40.4189C21.8997 40.7535 22.034 41.147 22.034 41.5495C22.0351 41.8173 21.9767 42.0828 21.8622 42.3306C21.7476 42.5783 21.5791 42.8036 21.3664 42.9933C21.1536 43.1831 20.9008 43.3337 20.6224 43.4364C20.3441 43.5392 20.0456 43.5921 19.7442 43.5921V43.5844Z" fill="#2196F3"/>
<path d="M37.4177 42.4637H35.7302V44.2069H34.8513V39.9413H37.6287V40.6532H35.7302V41.7548H37.4177V42.4637ZM41.6423 42.1708C41.6423 42.5907 41.5681 42.9589 41.4197 43.2753C41.2712 43.5917 41.0583 43.8358 40.781 44.0077C40.5056 44.1796 40.1892 44.2655 39.8318 44.2655C39.4783 44.2655 39.1628 44.1805 38.8855 44.0106C38.6082 43.8407 38.3933 43.5985 38.241 43.2841C38.0886 42.9677 38.0115 42.6044 38.0095 42.1942V41.9833C38.0095 41.5634 38.0847 41.1942 38.2351 40.8759C38.3875 40.5555 38.6013 40.3104 38.8767 40.1405C39.1541 39.9686 39.4705 39.8827 39.8259 39.8827C40.1814 39.8827 40.4968 39.9686 40.7722 40.1405C41.0496 40.3104 41.2634 40.5555 41.4138 40.8759C41.5662 41.1942 41.6423 41.5624 41.6423 41.9803V42.1708ZM40.7517 41.9774C40.7517 41.5302 40.6716 41.1903 40.5115 40.9579C40.3513 40.7255 40.1228 40.6093 39.8259 40.6093C39.531 40.6093 39.3035 40.7245 39.1433 40.955C38.9832 41.1835 38.9021 41.5194 38.9001 41.9628V42.1708C38.9001 42.6063 38.9802 42.9442 39.1404 43.1844C39.3005 43.4247 39.531 43.5448 39.8318 43.5448C40.1267 43.5448 40.3533 43.4296 40.5115 43.1991C40.6697 42.9667 40.7498 42.6288 40.7517 42.1854V41.9774ZM44.4929 43.0878C44.4929 42.9218 44.4343 42.7948 44.3171 42.7069C44.2 42.6171 43.989 42.5233 43.6843 42.4257C43.3796 42.326 43.1384 42.2284 42.9607 42.1327C42.4763 41.871 42.2341 41.5184 42.2341 41.0751C42.2341 40.8446 42.2986 40.6395 42.4275 40.4598C42.5583 40.2782 42.7449 40.1366 42.9871 40.035C43.2312 39.9335 43.5046 39.8827 43.8074 39.8827C44.1121 39.8827 44.3835 39.9384 44.6218 40.0497C44.8601 40.1591 45.0447 40.3143 45.1755 40.5155C45.3083 40.7167 45.3748 40.9452 45.3748 41.201H44.4958C44.4958 41.0057 44.4343 40.8544 44.3113 40.7469C44.1882 40.6376 44.0154 40.5829 43.7927 40.5829C43.5779 40.5829 43.4109 40.6288 43.2917 40.7206C43.1726 40.8104 43.113 40.9296 43.113 41.078C43.113 41.2167 43.1824 41.3329 43.321 41.4266C43.4617 41.5204 43.6677 41.6083 43.9392 41.6903C44.4392 41.8407 44.8035 42.0272 45.032 42.2499C45.2605 42.4725 45.3748 42.7499 45.3748 43.0819C45.3748 43.451 45.2351 43.7411 44.9558 43.952C44.6765 44.161 44.3005 44.2655 43.8279 44.2655C43.4998 44.2655 43.2009 44.2059 42.9314 44.0868C42.6619 43.9657 42.4558 43.8007 42.3132 43.5917C42.1726 43.3827 42.1023 43.1405 42.1023 42.8651H42.9841C42.9841 43.3358 43.2654 43.5712 43.8279 43.5712C44.0369 43.5712 44.2 43.5292 44.3171 43.4452C44.4343 43.3593 44.4929 43.2401 44.4929 43.0878ZM49.1833 40.6532H47.8767V44.2069H46.9978V40.6532H45.7087V39.9413H49.1833V40.6532ZM52.2537 42.3583H50.5662V43.5009H52.5466V44.2069H49.6873V39.9413H52.5408V40.6532H50.5662V41.6698H52.2537V42.3583ZM54.6414 42.6454H53.9412V44.2069H53.0623V39.9413H54.6472C55.1511 39.9413 55.5398 40.0536 55.8132 40.2782C56.0867 40.5028 56.2234 40.8202 56.2234 41.2303C56.2234 41.5214 56.1599 41.7645 56.033 41.9598C55.908 42.1532 55.7175 42.3075 55.4617 42.4227L56.3845 44.1659V44.2069H55.4412L54.6414 42.6454ZM53.9412 41.9335H54.6501C54.8708 41.9335 55.0417 41.8778 55.1628 41.7665C55.2839 41.6532 55.3445 41.4979 55.3445 41.3007C55.3445 41.0995 55.2869 40.9413 55.1716 40.826C55.0583 40.7108 54.8835 40.6532 54.6472 40.6532H53.9412V41.9335ZM59.2673 42.704V44.2069H58.3884V39.9413H60.0525C60.3728 39.9413 60.6541 39.9999 60.8962 40.1171C61.1404 40.2343 61.3279 40.4012 61.4587 40.618C61.5896 40.8329 61.655 41.078 61.655 41.3534C61.655 41.7714 61.5115 42.1014 61.2244 42.3436C60.9392 42.5839 60.5437 42.704 60.0378 42.704H59.2673ZM59.2673 41.9921H60.0525C60.2849 41.9921 60.4617 41.9374 60.5828 41.828C60.7058 41.7186 60.7673 41.5624 60.7673 41.3593C60.7673 41.1503 60.7058 40.9813 60.5828 40.8524C60.4597 40.7235 60.2898 40.6571 60.073 40.6532H59.2673V41.9921ZM64.8279 42.3583H63.1404V43.5009H65.1208V44.2069H62.2615V39.9413H65.115V40.6532H63.1404V41.6698H64.8279V42.3583ZM68.906 40.6532H67.5994V44.2069H66.7205V40.6532H65.4314V39.9413H68.906V40.6532ZM71.9763 42.3583H70.2888V43.5009H72.2693V44.2069H69.4099V39.9413H72.2634V40.6532H70.2888V41.6698H71.9763V42.3583ZM74.364 42.6454H73.6638V44.2069H72.7849V39.9413H74.3699C74.8738 39.9413 75.2625 40.0536 75.5359 40.2782C75.8093 40.5028 75.946 40.8202 75.946 41.2303C75.946 41.5214 75.8826 41.7645 75.7556 41.9598C75.6306 42.1532 75.4402 42.3075 75.1843 42.4227L76.1072 44.1659V44.2069H75.1638L74.364 42.6454ZM73.6638 41.9335H74.3728C74.5935 41.9335 74.7644 41.8778 74.8855 41.7665C75.0066 41.6532 75.0671 41.4979 75.0671 41.3007C75.0671 41.0995 75.0095 40.9413 74.8943 40.826C74.781 40.7108 74.6062 40.6532 74.3699 40.6532H73.6638V41.9335ZM78.8289 43.0878C78.8289 42.9218 78.7703 42.7948 78.6531 42.7069C78.5359 42.6171 78.325 42.5233 78.0203 42.4257C77.7156 42.326 77.4744 42.2284 77.2966 42.1327C76.8123 41.871 76.5701 41.5184 76.5701 41.0751C76.5701 40.8446 76.6345 40.6395 76.7634 40.4598C76.8943 40.2782 77.0808 40.1366 77.323 40.035C77.5671 39.9335 77.8406 39.8827 78.1433 39.8827C78.448 39.8827 78.7195 39.9384 78.9578 40.0497C79.196 40.1591 79.3806 40.3143 79.5115 40.5155C79.6443 40.7167 79.7107 40.9452 79.7107 41.201H78.8318C78.8318 41.0057 78.7703 40.8544 78.6472 40.7469C78.5242 40.6376 78.3513 40.5829 78.1287 40.5829C77.9138 40.5829 77.7468 40.6288 77.6277 40.7206C77.5085 40.8104 77.449 40.9296 77.449 41.078C77.449 41.2167 77.5183 41.3329 77.657 41.4266C77.7976 41.5204 78.0037 41.6083 78.2751 41.6903C78.7751 41.8407 79.1394 42.0272 79.3679 42.2499C79.5964 42.4725 79.7107 42.7499 79.7107 43.0819C79.7107 43.451 79.571 43.7411 79.2917 43.952C79.0125 44.161 78.6365 44.2655 78.1638 44.2655C77.8357 44.2655 77.5369 44.2059 77.2673 44.0868C76.9978 43.9657 76.7917 43.8007 76.6492 43.5917C76.5085 43.3827 76.4382 43.1405 76.4382 42.8651H77.3201C77.3201 43.3358 77.6013 43.5712 78.1638 43.5712C78.3728 43.5712 78.5359 43.5292 78.6531 43.4452C78.7703 43.3593 78.8289 43.2401 78.8289 43.0878Z" fill="#2196F3"/>
</svg>
